<svg xmlns="http://www.w3.org/2000/svg" viewBox="0 0 24 24" fill="white" width="48px" height="48px">
  <path d="M12 0C5.37 0 0 5.37 0 12c0 5.3 3.44 9.8 8.2 11.39.6.11.82-.26.82-.58 0-.29-.01-1.04-.02-2.05-3.34.73-4.04-1.61-4.04-1.61-.55-1.39-1.35-1.76-1.35-1.76-1.1-.75.08-.74.08-.74 1.22.08 1.86 1.25 1.86 1.25 1.08 1.85 2.84 1.32 3.53 1.01.11-.78.42-1.32.76-1.63-2.67-.3-5.47-1.34-5.47-5.97 0-1.32.47-2.39 1.24-3.23-.12-.3-.54-1.52.12-3.18 0 0 1.01-.32 3.3 1.23a11.48 11.48 0 0 1 3.01-.4c1.02.01 2.05.14 3.01.4 2.29-1.55 3.3-1.23 3.3-1.23.66 1.66.24 2.88.12 3.18.77.84 1.24 1.91 1.24 3.23 0 4.64-2.8 5.67-5.48 5.96.43.37.82 1.1.82 2.22 0 1.61-.01 2.91-.01 3.3 0 .32.22.7.83.58C20.56 21.8 24 17.3 24 12 24 5.37 18.63 0 12 0z"/>
</svg>
